<svg width="40" height="40" viewBox="0 0 40 40" fill="none" xmlns="http://www.w3.org/2000/svg">
<path d="M16.5551 27.6835C16.3706 27.8631 16.0799 27.8731 15.8833 27.7069C14.2463 26.3225 13.2284 25.4617 11.5 24L8.31243 20.3571C8.1373 20.1569 8.1495 19.8547 8.34021 19.6693L15.8812 12.339C16.0753 12.1503 16.3844 12.1504 16.5784 12.3392L18.1901 13.9078C18.3751 14.0879 18.3926 14.3787 18.2275 14.5772C17.8274 15.0582 17.0878 15.9266 16.5 16.5C16.112 16.8784 15.592 17.3215 15.1467 17.6872C14.805 17.9679 14.9548 18.5248 15.3938 18.5781C17.9617 18.8897 24.1968 19.5291 28.5 19C29.4201 18.8869 30.6764 18.6681 31.4067 18.5358C31.7153 18.4799 32 18.7167 32 19.0304V21.1118C32 21.3728 31.8023 21.5895 31.542 21.6086C30.1533 21.7106 25.9069 22.0035 23 22C20.6533 21.9972 17.4119 21.7992 15.5962 21.6742C15.1298 21.6421 14.8735 22.2119 15.2077 22.5387C16.2255 23.534 17.0291 24.3198 18.1497 25.4157C18.3506 25.6121 18.3507 25.9359 18.1493 26.1319L16.5551 27.6835Z" fill="#D60011"/>
</svg>
