<svg width="36" height="36" viewBox="0 0 36 36" fill="none" xmlns="http://www.w3.org/2000/svg">
<rect x="0.720095" y="0.640994" width="34.4449" height="34.4449" rx="3.42943" fill="#D0E381" stroke="black" stroke-width="1.02613"/>
<path d="M8.51953 25.5403V10.9894H13.1597V12.1352H15.1648V10.9894H16.1959V9.15625H22.784V10.9894H25.8202V12.1352H27.3669V17.1764H25.8202V21.9312H24.5026V23.5926H22.784V25.5403H21.1226V26.5715H10.1808V25.5403H8.51953Z" fill="black"/>
<path d="M18.0866 23.6493H10.0664V21.8161H13.2745V20.6132H11.4413V19.0092H10.0664V12.0774H11.4413V14.1971H14.9931V15.7438H16.4825V12.4212H18.0866V11.2754H21.0655V12.4212H24.7891V14.1971H22.7841V19.0092H21.0655V20.6132H19.9198V21.8161H18.0866V23.6493Z" fill="white"/>
</svg>
