<svg width="58" height="58" viewBox="0 0 58 58" fill="none" xmlns="http://www.w3.org/2000/svg">
<rect x="1.32899" y="1.32899" width="55.342" height="55.342" rx="8.88322" fill="#FCC313" stroke="black" stroke-width="2.65797"/>
<path d="M13.5918 41.5617V17.769H21.1792V19.6424H24.4577V17.769H26.1438V14.7715H36.9161V17.769H41.8807V19.6424H44.4098V27.8856H41.8807V35.6603H39.7262V38.3768H36.9161V41.5617H34.1996V43.2478H16.3082V41.5617H13.5918Z" fill="black"/>
<path d="M29.2351 38.4753H16.1211V35.4777H21.3667V33.5107H18.3692V30.8879H16.1211V19.5536H18.3692V23.0195H24.1769V25.5486H26.6123V20.1157H29.2351V18.2422H34.1061V20.1157H40.1948V23.0195H36.9162V30.8879H34.1061V33.5107H32.2326V35.4777H29.2351V38.4753Z" fill="white"/>
</svg>
