<svg width="203" height="75" viewBox="0 0 203 75" fill="none" xmlns="http://www.w3.org/2000/svg">
<mask id="path-1-inside-1_2398_232" fill="white">
<path fill-rule="evenodd" clip-rule="evenodd" d="M197 0C200.314 0 203 2.68629 203 6V49.5377C203 52.8514 200.314 55.5377 197 55.5377H183.376L174.278 73.1806C173.533 74.625 171.467 74.625 170.722 73.1806L161.624 55.5377H6C2.68629 55.5377 0 52.8514 0 49.5377V6C0 2.68629 2.68629 0 6 0H197Z"/>
</mask>
<path fill-rule="evenodd" clip-rule="evenodd" d="M197 0C200.314 0 203 2.68629 203 6V49.5377C203 52.8514 200.314 55.5377 197 55.5377H183.376L174.278 73.1806C173.533 74.625 171.467 74.625 170.722 73.1806L161.624 55.5377H6C2.68629 55.5377 0 52.8514 0 49.5377V6C0 2.68629 2.68629 0 6 0H197Z" fill="white"/>
<path d="M183.376 55.5377L180.949 54.2862L181.712 52.8071H183.376V55.5377ZM174.278 73.1806L171.851 71.9291H171.851L174.278 73.1806ZM170.722 73.1806L168.296 74.4321H168.296L170.722 73.1806ZM161.624 55.5377V52.8071H163.288L164.051 54.2862L161.624 55.5377ZM200.269 6C200.269 4.19435 198.806 2.73057 197 2.73057V-2.73057C201.822 -2.73057 205.731 1.17824 205.731 6H200.269ZM200.269 49.5377V6H205.731V49.5377H200.269ZM197 52.8071C198.806 52.8071 200.269 51.3434 200.269 49.5377H205.731C205.731 54.3595 201.822 58.2683 197 58.2683V52.8071ZM183.376 52.8071H197V58.2683H183.376V52.8071ZM171.851 71.9291L180.949 54.2862L185.803 56.7892L176.704 74.4321L171.851 71.9291ZM173.149 71.9291C172.877 71.4014 172.123 71.4015 171.851 71.9291L176.704 74.4321C174.943 77.8486 170.057 77.8486 168.296 74.4321L173.149 71.9291ZM164.051 54.2862L173.149 71.9291L168.296 74.4321L159.197 56.7892L164.051 54.2862ZM6 52.8071H161.624V58.2683H6V52.8071ZM2.73058 49.5377C2.73058 51.3434 4.19435 52.8071 6 52.8071V58.2683C1.17824 58.2683 -2.73058 54.3595 -2.73058 49.5377H2.73058ZM2.73058 6V49.5377H-2.73058V6H2.73058ZM6 2.73057C4.19435 2.73057 2.73058 4.19435 2.73058 6H-2.73058C-2.73058 1.17824 1.17824 -2.73057 6 -2.73057V2.73057ZM197 2.73057H6V-2.73057H197V2.73057Z" fill="#D60011" mask="url(#path-1-inside-1_2398_232)"/>
<path d="M31.499 29.3708C31.1 27.9428 30.743 26.5568 30.47 25.4438C30.008 23.4698 30.05 23.1968 30.071 22.9868C30.134 22.5878 30.386 22.2518 30.764 22.1048C30.848 22.0838 32.78 21.3488 34.901 20.6768C38.975 19.3748 40.13 19.4588 40.76 19.7528C41.432 20.0678 41.999 20.8868 42.692 22.6298C43.154 23.7848 43.679 25.3388 44.204 27.1658C45.086 30.2738 45.884 33.7808 45.905 34.7048C45.926 35.2928 45.443 35.7968 44.834 35.8178C44.246 35.8178 43.742 35.3558 43.742 34.7468C43.721 34.2218 43.112 31.3028 42.188 28.1108C41.012 23.9108 40.193 22.1888 39.836 21.7478C39.521 21.7478 38.471 21.8108 35.342 22.8188C34.187 23.1968 33.074 23.5958 32.36 23.8478C32.549 24.7928 33.011 26.6408 33.662 29.0138C34.67 32.4998 35.384 34.4948 35.657 34.9568C35.993 35.4398 35.825 36.1328 35.321 36.4478C35.153 36.5528 34.943 36.6158 34.754 36.6158C34.376 36.6158 34.04 36.4478 33.83 36.1118C33.158 35.0828 32.087 31.4498 31.499 29.3708ZM50.5764 36.5108C48.3714 35.2928 47.4684 32.2898 47.9304 27.6068C48.2454 24.2888 49.1274 21.1178 49.4424 20.3198C49.6314 19.7528 50.2614 19.4798 50.8284 19.6898C51.3114 19.8578 51.6054 20.3408 51.5424 20.8238C51.9624 20.4458 52.4454 20.1098 53.0124 19.7948C54.3564 19.0388 55.8894 18.5768 57.3384 18.4928C59.6904 18.3668 61.4754 19.2278 62.3994 20.9078C64.2264 24.2888 60.3414 30.5048 56.9814 33.8228C55.5114 35.2928 53.5584 36.8258 51.8364 36.8258C51.3954 36.8258 50.9754 36.7208 50.5764 36.5108ZM50.0934 27.8168C49.7574 31.4498 50.3034 33.8438 51.6264 34.5998C51.9414 34.7678 53.2854 34.4318 55.4274 32.2898C58.9974 28.7408 61.4544 23.7218 60.4884 21.9578C59.8374 20.7818 58.4934 20.6138 57.4644 20.6768C55.2384 20.8028 52.6554 22.1888 52.0884 23.5958C51.8574 24.1628 51.2274 24.4358 50.6604 24.2048C50.4294 25.2968 50.2194 26.5568 50.0934 27.8168ZM65.6409 27.0608C65.5779 23.9738 66.1029 20.8868 67.1319 18.5978C67.3839 18.0308 68.0139 17.7998 68.5809 18.0308C69.1269 18.2828 69.3789 18.9338 69.1269 19.4798C68.2029 21.5588 67.6149 24.9188 67.8879 28.2368C69.2949 27.2078 70.8279 26.3048 72.4449 25.5068C72.7179 23.4698 73.2429 21.4958 74.0619 19.5848C74.2929 19.0388 74.9439 18.7658 75.4899 19.0178C76.0569 19.2488 76.3089 19.8788 76.0779 20.4458C75.5109 21.7478 75.0909 23.1128 74.8179 24.4988C75.5319 24.2258 76.2249 23.9948 76.9599 23.7848C77.5479 23.6168 78.1569 23.9528 78.3249 24.5198C78.4929 25.1078 78.1569 25.6958 77.5689 25.8638C76.5189 26.1788 75.4899 26.5568 74.4819 26.9768C74.2509 30.1688 74.7339 33.5078 75.9309 36.8678C76.1409 37.4348 75.8259 38.0648 75.2799 38.2538C75.1539 38.2958 75.0279 38.3168 74.9019 38.3168C74.4609 38.3168 74.0409 38.0438 73.8729 37.6028C72.7389 34.3898 72.1929 31.1768 72.2559 28.0688C70.8279 28.8458 69.4839 29.7278 68.2659 30.7148C68.6019 32.2268 69.1689 33.6548 69.9879 34.8728C70.3239 35.3768 70.1979 36.0488 69.6939 36.3848C69.5049 36.5108 69.2949 36.5738 69.0849 36.5738C68.7279 36.5738 68.3919 36.4058 68.1819 36.0908C67.3839 34.9148 66.8169 33.6338 66.4389 32.3528C66.2709 32.4578 66.0609 32.5208 65.8509 32.5208C65.5569 32.5208 65.2839 32.4158 65.0739 32.2058C64.6539 31.7858 64.6539 31.0928 65.0739 30.6728C65.3259 30.3998 65.5989 30.1478 65.8929 29.8958C65.7249 28.8668 65.6619 27.9008 65.6409 27.0608ZM80.8664 22.1258C80.3204 21.8528 80.1104 21.1808 80.3834 20.6558C80.6144 20.2358 81.0974 20.0048 81.5594 20.0888C81.6434 19.7528 81.9164 19.4798 82.2734 19.3748C82.7144 19.2278 83.1974 19.3958 83.4494 19.7528C83.5964 19.7318 83.7224 19.6898 83.8694 19.6688C86.6834 19.0388 90.5894 18.1778 93.0464 18.7658C93.6344 18.8918 93.9914 19.4798 93.8654 20.0678C93.7184 20.6558 93.1304 21.0338 92.5634 20.8868C90.5684 20.4248 86.8094 21.2438 84.3314 21.7898C84.0794 21.8528 83.8484 21.8948 83.6384 21.9368C83.3654 31.6598 85.1924 34.0328 86.3264 34.5788C86.8724 34.8308 87.1034 35.4818 86.8514 36.0278C86.6624 36.4268 86.2634 36.6578 85.8644 36.6578C85.6964 36.6578 85.5494 36.6158 85.3814 36.5318C83.4074 35.5868 82.2104 33.0668 81.6854 28.8668C81.3914 26.4518 81.4124 23.9318 81.4544 22.2728C81.2024 22.2728 81.0344 22.2308 80.8664 22.1258ZM104.785 21.8738C104.89 23.4488 103.84 25.0238 101.677 26.5778C101.11 27.0188 100.48 27.3968 99.8924 27.7328C99.9134 27.8378 99.9344 27.9218 99.9554 28.0058C100.837 32.3318 101.908 35.6918 102.832 37.0358C103.168 37.5398 103.042 38.2118 102.559 38.5688C102.37 38.6948 102.16 38.7578 101.929 38.7578C101.593 38.7578 101.257 38.5898 101.047 38.2748C99.5984 36.1958 98.4644 31.5968 97.8974 28.8038C97.7084 28.8878 97.5614 28.9718 97.4354 29.0348L97.3724 29.0558C97.2254 29.1398 97.0574 29.1818 96.8894 29.1818C96.4904 29.1818 96.0914 28.9508 95.9234 28.5518C95.6504 28.0268 95.8814 27.3548 96.4274 27.1028L96.4694 27.0608C96.8264 26.9138 97.1624 26.7248 97.4564 26.5778C97.2674 25.5068 97.0994 24.4148 96.9734 23.4068C96.7844 23.4278 96.5954 23.4068 96.4274 23.3228C95.8814 23.0708 95.6294 22.4198 95.8814 21.8738C96.0494 21.4958 96.3644 21.0968 96.7424 20.7398C96.7424 20.3618 96.7634 20.0468 96.8054 19.8368C96.9314 19.2278 97.4984 18.8498 98.0864 18.9758C98.3594 19.0388 98.5904 19.1858 98.7374 19.3958C99.8714 18.8708 101.152 18.5978 102.244 18.8078C103.756 19.0808 104.68 20.1938 104.785 21.8738ZM99.4724 25.4438C102.223 23.7218 102.643 22.5878 102.601 21.9998C102.559 21.1388 102.181 21.0128 101.845 20.9498C101.026 20.7818 99.8504 21.2228 98.9894 21.7478C99.0734 22.6508 99.2204 23.9108 99.4724 25.4438ZM110.923 29.9798C110.377 31.9958 110.02 33.5708 109.999 34.1378C109.978 34.7468 109.474 35.2088 108.865 35.1878C108.256 35.1668 107.794 34.6628 107.815 34.0538C107.857 33.2768 108.235 31.5548 108.739 29.7068C108.445 29.6648 108.214 29.6438 108.088 29.6648C107.542 29.8328 106.933 29.5178 106.765 28.9718C106.555 28.3838 106.87 27.7748 107.437 27.5858C107.899 27.4388 108.466 27.4598 109.327 27.5858C109.495 26.9978 109.663 26.4518 109.81 25.9268C111.847 19.2488 112.372 18.9968 112.813 18.7868C113.191 18.5978 113.632 18.6188 113.968 18.8708C114.619 19.3118 114.535 20.1308 114.472 20.8028C114.367 21.6428 114.766 24.4568 115.543 27.4808C115.585 27.6698 115.627 27.8378 115.669 28.0058C116.593 27.9218 117.475 27.7538 118.315 27.4388C118.882 27.2078 119.512 27.5018 119.722 28.0688C119.932 28.6358 119.659 29.2658 119.092 29.4758C118.189 29.8118 117.244 30.0218 116.32 30.1268C116.992 32.1638 117.727 33.6548 118.378 34.3268C118.798 34.7678 118.777 35.4608 118.357 35.8808C118.147 36.0698 117.874 36.1748 117.601 36.1748C117.307 36.1748 117.013 36.0698 116.803 35.8598C115.669 34.6838 114.745 32.4158 114.052 30.2318C112.939 30.2108 111.868 30.1058 110.923 29.9798ZM112.624 24.2888C112.372 25.0658 112.078 25.9688 111.763 27.0188C111.679 27.3128 111.595 27.5858 111.511 27.8588C112.12 27.9428 112.771 28.0058 113.443 28.0268C113.107 26.7248 112.813 25.4438 112.624 24.2888ZM130.193 36.3428C128.429 36.3428 126.539 35.7128 124.943 34.4318C121.751 31.8698 119.882 26.6408 124.25 19.6478C124.565 19.1438 125.237 18.9758 125.762 19.2908C126.266 19.6058 126.413 20.2988 126.098 20.8028C125.93 21.0758 125.762 21.3698 125.594 21.6428C128.009 21.8108 131.915 22.0418 134.603 20.8448C135.149 20.5928 135.8 20.8448 136.052 21.3908C136.283 21.9368 136.031 22.5878 135.485 22.8398C133.448 23.7428 130.991 23.9528 128.786 23.9528C127.484 23.9528 126.266 23.8688 125.279 23.8268C125.027 23.8058 124.817 23.7848 124.607 23.7638C124.313 24.5618 124.103 25.3388 123.977 26.0738C126.581 25.7588 128.198 26.0948 129.92 26.4728C130.907 26.6618 131.936 26.8928 133.259 26.9978C133.868 27.0398 134.309 27.5648 134.267 28.1528C134.225 28.7408 133.742 29.1608 133.196 29.1608C133.154 29.1608 133.133 29.1608 133.091 29.1608C131.642 29.0558 130.487 28.8038 129.458 28.5938C127.799 28.2368 126.35 27.9428 123.893 28.2788C124.082 30.0638 124.88 31.5758 126.308 32.7308C128.429 34.4318 131.306 34.6628 132.734 33.2558C133.154 32.8358 133.847 32.8358 134.267 33.2558C134.687 33.6968 134.687 34.3688 134.267 34.8098C133.217 35.8388 131.768 36.3428 130.193 36.3428ZM157.095 27.0818C157.158 30.2738 157.242 34.6208 157.998 36.0698C158.271 36.6158 158.061 37.2668 157.515 37.5398C157.347 37.6238 157.179 37.6658 157.011 37.6658C156.612 37.6658 156.234 37.4348 156.045 37.0568C155.079 35.1668 154.995 31.0928 154.911 27.1238C154.89 25.8638 154.848 24.3308 154.764 23.1968C153.84 24.5408 152.559 26.6408 151.677 28.0898C150.963 29.2868 150.27 30.4208 149.724 31.2398C148.842 32.6468 148.506 33.0248 147.939 33.1298C147.54 33.1928 147.141 33.0668 146.847 32.7728C145.986 32.0168 145.986 30.0638 146.364 24.6038C146.385 24.3098 146.427 23.9948 146.448 23.6798C145.734 24.4568 144.726 25.7378 143.403 27.8168C141.597 30.6938 140.295 33.2768 140.169 33.7178C139.98 34.2848 139.371 34.6208 138.804 34.4318C138.237 34.2638 137.901 33.6338 138.09 33.0668C138.363 32.2058 140.001 29.1398 141.702 26.4308C145.041 21.2228 146.574 20.5508 147.561 20.5508C147.897 20.5508 148.191 20.6978 148.401 20.9498C148.779 21.4118 148.758 21.8528 148.548 24.7508C148.464 25.9268 148.317 27.9218 148.317 29.4338C148.779 28.6568 149.325 27.7748 149.829 26.9558C150.774 25.3808 151.782 23.7638 152.622 22.4828C154.029 20.3408 154.554 19.8368 155.31 19.8788C155.688 19.8998 156.36 20.0888 156.675 21.1808C156.78 21.5588 156.864 22.0418 156.927 22.7138C157.011 23.8688 157.053 25.4228 157.095 27.0818ZM170.884 22.0838C171.619 22.8398 171.913 23.7218 171.703 24.5828C171.409 25.7798 170.296 26.3888 169.099 27.0398C167.272 28.0268 166.096 28.8038 166.201 30.5468C166.222 31.1558 165.76 31.6598 165.172 31.7018C165.151 31.7018 165.13 31.7018 165.109 31.7018C164.542 31.7018 164.059 31.2608 164.017 30.6728C163.849 27.4178 166.369 26.0318 168.07 25.1288C168.595 24.8348 169.498 24.3308 169.582 24.0998C169.603 23.9318 169.435 23.7218 169.309 23.6168C168.007 22.2938 163.597 21.2648 161.329 21.7478C160.741 21.8948 160.153 21.5168 160.027 20.9288C159.901 20.3408 160.279 19.7528 160.867 19.6268C163.618 19.0178 168.889 20.0678 170.884 22.0838ZM167.209 33.4238C167.965 34.1168 167.545 34.6628 167.251 35.0198C167.23 35.0618 167.083 35.8178 166.663 35.9438C166.054 36.1118 165.13 35.8808 164.626 35.4398C163.87 34.7468 164.311 34.2008 164.584 33.8438C164.626 33.8018 164.689 33.7178 164.71 33.6758C164.584 33.3398 164.752 33.0458 165.193 32.9198C165.802 32.7308 166.705 32.9618 167.209 33.4238Z" fill="black"/>
</svg>
