<svg width="44" height="45" viewBox="0 0 44 45" fill="none" xmlns="http://www.w3.org/2000/svg">
<g filter="url(#filter0_d_2447_631)">
<rect x="4.7201" y="1.36463" width="34.4449" height="34.4449" rx="3.42943" fill="#D0E381" stroke="black" stroke-width="1.02613"/>
<path d="M12.3691 22.4928V12.5017H16.9163V11.349H18.3253V9.55566H23.0006V11.349H27.932V12.5017H29.7253V14.295H31.5185V24.0299H29.7253V25.8872H25.114V27.6164H19.9264V25.8872H18.005V24.0299H13.5219V22.4928H12.3691Z" fill="black"/>
<rect x="13.459" y="14.3594" width="4.67525" height="6.5966" fill="white"/>
<rect x="18.1328" y="12.5342" width="1.85731" height="10.2472" fill="white"/>
<rect x="19.9902" y="11.2207" width="1.85731" height="12.8731" fill="white"/>
<rect x="23.1289" y="16.0566" width="1.85731" height="3.2023" fill="white"/>
<rect x="26.8438" y="14.3594" width="1.15275" height="6.5966" fill="white"/>
<rect x="24.9863" y="20.9551" width="1.85731" height="1.82529" fill="white"/>
<rect x="24.9863" y="12.5332" width="1.85731" height="1.82529" fill="white"/>
</g>
<defs>
<filter id="filter0_d_2447_631" x="0.207031" y="0.851562" width="43.4707" height="43.4707" filterUnits="userSpaceOnUse" color-interpolation-filters="sRGB">
<feFlood flood-opacity="0" result="BackgroundImageFix"/>
<feColorMatrix in="SourceAlpha" type="matrix" values="0 0 0 0 0 0 0 0 0 0 0 0 0 0 0 0 0 0 127 0" result="hardAlpha"/>
<feOffset dy="4"/>
<feGaussianBlur stdDeviation="2"/>
<feComposite in2="hardAlpha" operator="out"/>
<feColorMatrix type="matrix" values="0 0 0 0 0 0 0 0 0 0 0 0 0 0 0 0 0 0 0.25 0"/>
<feBlend mode="normal" in2="BackgroundImageFix" result="effect1_dropShadow_2447_631"/>
<feBlend mode="normal" in="SourceGraphic" in2="effect1_dropShadow_2447_631" result="shape"/>
</filter>
</defs>
</svg>
