<svg width="58" height="58" viewBox="0 0 58 58" fill="none" xmlns="http://www.w3.org/2000/svg">
<rect x="1.32899" y="1.32899" width="55.342" height="55.342" rx="8.88322" fill="#FCC313" stroke="black" stroke-width="2.65797"/>
<path d="M13.168 35.3805V19.0438H20.6032V17.1588H22.9071V14.2266H30.5518V17.1588H32.7513V43.7583H30.5518H25.5251V40.9308H22.3834V37.8938H15.0529V35.3805H13.168Z" fill="black"/>
<rect x="14.9492" y="22.0781" width="7.64466" height="10.7863" fill="white"/>
<rect x="22.5938" y="19.0977" width="3.03696" height="16.7555" fill="white"/>
<rect x="25.6289" y="16.9473" width="3.03696" height="21.0493" fill="white"/>
<rect x="37.5469" y="34.6875" width="13.7923" height="4.80621" transform="rotate(-90 37.5469 34.6875)" fill="black"/>
<rect x="32.6738" y="36.416" width="13.7923" height="4.80621" transform="rotate(-90 32.6738 36.416)" fill="black"/>
<rect x="29.4766" y="22.6172" width="13.7923" height="4.48378" fill="black"/>
<rect x="29.4766" y="28.3438" width="13.7923" height="5.28943" fill="black"/>
<rect x="31.041" y="29.8789" width="13.7923" height="4.80621" fill="black"/>
<rect x="31.041" y="23.5352" width="13.7923" height="4.80621" fill="black"/>
<rect x="31.041" y="34.6875" width="13.7923" height="4.80621" transform="rotate(-90 31.041 34.6875)" fill="black"/>
<rect x="38.4629" y="36.4102" width="13.7923" height="4.80621" transform="rotate(-90 38.4629 36.4102)" fill="black"/>
<rect x="31.1582" y="23.8535" width="4.44438" height="1.65187" fill="white"/>
<rect x="31.1582" y="30.0938" width="4.44438" height="1.65187" fill="white"/>
<rect x="37.2539" y="30.0938" width="4.44438" height="1.65187" fill="white"/>
<rect x="37.2539" y="23.8535" width="4.44438" height="1.65187" fill="white"/>
<rect x="32.791" y="22.4316" width="1.17992" height="4.48367" fill="white"/>
<rect x="38.8867" y="22.4316" width="1.17992" height="4.48367" fill="white"/>
<rect x="38.8867" y="28.6738" width="1.17992" height="4.48367" fill="white"/>
<rect x="32.791" y="28.6738" width="1.17992" height="4.48367" fill="white"/>
<rect x="33.9707" y="25.498" width="4.91633" height="4.90077" fill="white"/>
</svg>
