<svg width="745" height="169" viewBox="0 0 745 169" fill="none" xmlns="http://www.w3.org/2000/svg">
<mask id="path-1-inside-1_2106_266" fill="white">
<path fill-rule="evenodd" clip-rule="evenodd" d="M656.403 0C665.263 0 672.445 7.18231 672.445 16.0421V99.137L745 107.131L672.445 115.125V152.958C672.445 161.818 665.263 169 656.403 169H16.0422C7.18237 169 0.00012207 161.818 0.00012207 152.958V16.0421C0.00012207 7.18231 7.18237 0 16.0422 0H656.403Z"/>
</mask>
<path fill-rule="evenodd" clip-rule="evenodd" d="M656.403 0C665.263 0 672.445 7.18231 672.445 16.0421V99.137L745 107.131L672.445 115.125V152.958C672.445 161.818 665.263 169 656.403 169H16.0422C7.18237 169 0.00012207 161.818 0.00012207 152.958V16.0421C0.00012207 7.18231 7.18237 0 16.0422 0H656.403Z" fill="white"/>
<path d="M672.445 99.137L672.146 101.851L669.714 101.583V99.137H672.445ZM745 107.131L745.299 104.417V109.845L745 107.131ZM672.445 115.125H669.714V112.679L672.146 112.411L672.445 115.125ZM669.714 16.0421C669.714 8.69036 663.755 2.73057 656.403 2.73057V-2.73057C666.771 -2.73057 675.176 5.67425 675.176 16.0421H669.714ZM669.714 99.137V16.0421H675.176V99.137H669.714ZM744.701 109.845L672.146 101.851L672.744 96.4228L745.299 104.417L744.701 109.845ZM672.146 112.411L744.701 104.417L745.299 109.845L672.744 117.839L672.146 112.411ZM669.714 152.958V115.125H675.176V152.958H669.714ZM656.403 166.269C663.755 166.269 669.714 160.31 669.714 152.958H675.176C675.176 163.326 666.771 171.731 656.403 171.731V166.269ZM16.0422 166.269H656.403V171.731H16.0422V166.269ZM2.73071 152.958C2.73071 160.31 8.69043 166.269 16.0422 166.269V171.731C5.67432 171.731 -2.73047 163.326 -2.73047 152.958H2.73071ZM2.73071 16.0421V152.958H-2.73047V16.0421H2.73071ZM16.0422 2.73057C8.69043 2.73057 2.73071 8.69035 2.73071 16.0421H-2.73047C-2.73047 5.67426 5.67432 -2.73057 16.0422 -2.73057V2.73057ZM656.403 2.73057H16.0422V-2.73057H656.403V2.73057Z" fill="#D60011" mask="url(#path-1-inside-1_2106_266)"/>
</svg>
