<svg width="474" height="133" viewBox="0 0 474 133" fill="none" xmlns="http://www.w3.org/2000/svg">
<mask id="path-1-inside-1_2359_485" fill="white">
<path fill-rule="evenodd" clip-rule="evenodd" d="M427.444 0C436.304 0 443.486 7.18231 443.486 16.0421V37.4661L472.1 49.6601C473.722 50.351 473.722 52.649 472.1 53.3399L443.486 65.5339V116.958C443.486 125.818 436.304 133 427.444 133H16.0423C7.18246 133 0.000152588 125.818 0.000152588 116.958V16.0421C0.000152588 7.18231 7.18243 0 16.0423 0H427.444Z"/>
</mask>
<path fill-rule="evenodd" clip-rule="evenodd" d="M427.444 0C436.304 0 443.486 7.18231 443.486 16.0421V37.4661L472.1 49.6601C473.722 50.351 473.722 52.649 472.1 53.3399L443.486 65.5339V116.958C443.486 125.818 436.304 133 427.444 133H16.0423C7.18246 133 0.000152588 125.818 0.000152588 116.958V16.0421C0.000152588 7.18231 7.18243 0 16.0423 0H427.444Z" fill="white"/>
<path d="M443.486 37.4661L441.918 41.1459L439.486 40.1095V37.4661H443.486ZM472.1 49.6601L473.669 45.9803H473.669L472.1 49.6601ZM472.1 53.3399L470.532 49.6601L470.532 49.6601L472.1 53.3399ZM443.486 65.5339H439.486V62.8905L441.918 61.8541L443.486 65.5339ZM439.486 16.0421C439.486 9.39145 434.095 4 427.444 4V-4C438.513 -4 447.486 4.97317 447.486 16.0421H439.486ZM439.486 37.4661V16.0421H447.486V37.4661H439.486ZM470.532 53.3399L441.918 41.1459L445.054 33.7863L473.669 45.9803L470.532 53.3399ZM470.532 49.6601C468.911 50.351 468.911 52.649 470.532 53.3399L473.669 45.9803C478.532 48.053 478.532 54.947 473.669 57.0197L470.532 49.6601ZM441.918 61.8541L470.532 49.6601L473.669 57.0197L445.054 69.2137L441.918 61.8541ZM439.486 116.958V65.5339H447.486V116.958H439.486ZM427.444 129C434.095 129 439.486 123.609 439.486 116.958H447.486C447.486 128.027 438.513 137 427.444 137V129ZM16.0423 129H427.444V137H16.0423V129ZM4.00015 116.958C4.00015 123.609 9.3916 129 16.0423 129V137C4.97333 137 -3.99985 128.027 -3.99985 116.958H4.00015ZM4.00015 16.0421V116.958H-3.99985V16.0421H4.00015ZM16.0423 4C9.39157 4 4.00015 9.39144 4.00015 16.0421H-3.99985C-3.99985 4.97317 4.9733 -4 16.0423 -4V4ZM427.444 4H16.0423V-4H427.444V4Z" fill="black" mask="url(#path-1-inside-1_2359_485)"/>
</svg>
