<svg width="391" height="207" viewBox="0 0 391 207" fill="none" xmlns="http://www.w3.org/2000/svg">
<mask id="path-1-inside-1_2359_554" fill="white">
<path fill-rule="evenodd" clip-rule="evenodd" d="M74.1829 1.45953C74.927 0.012184 76.9961 0.0121873 77.7402 1.45954L89.8435 25.0005H374.958C383.818 25.0005 391 32.1828 391 41.0426V190.958C391 199.818 383.818 207 374.958 207H16.0425C7.18271 207 0.000396729 199.818 0.000396729 190.958V41.0426C0.000396729 32.1828 7.18268 25.0005 16.0425 25.0005H62.0796L74.1829 1.45953Z"/>
</mask>
<path fill-rule="evenodd" clip-rule="evenodd" d="M74.1829 1.45953C74.927 0.012184 76.9961 0.0121873 77.7402 1.45954L89.8435 25.0005H374.958C383.818 25.0005 391 32.1828 391 41.0426V190.958C391 199.818 383.818 207 374.958 207H16.0425C7.18271 207 0.000396729 199.818 0.000396729 190.958V41.0426C0.000396729 32.1828 7.18268 25.0005 16.0425 25.0005H62.0796L74.1829 1.45953Z" fill="white"/>
<path d="M77.7402 1.45954L81.2976 -0.369443V-0.369437L77.7402 1.45954ZM74.1829 1.45953L70.6255 -0.369436V-0.369447L74.1829 1.45953ZM89.8435 25.0005V29.0005H87.4023L86.2861 26.8294L89.8435 25.0005ZM62.0796 25.0005L65.637 26.8294L64.5208 29.0005H62.0796V25.0005ZM74.1829 3.28852C74.927 4.73585 76.9961 4.73587 77.7402 3.28852L70.6255 -0.369447C72.8579 -4.7115 79.0652 -4.71147 81.2976 -0.369443L74.1829 3.28852ZM86.2861 26.8294L74.1829 3.28851L81.2976 -0.369437L93.4009 23.1715L86.2861 26.8294ZM374.958 29.0005H89.8435V21.0005H374.958V29.0005ZM387 41.0426C387 34.3919 381.609 29.0005 374.958 29.0005V21.0005C386.027 21.0005 395 29.9736 395 41.0426H387ZM387 190.958V41.0426H395V190.958H387ZM374.958 203C381.609 203 387 197.609 387 190.958H395C395 202.027 386.027 211 374.958 211V203ZM16.0425 203H374.958V211H16.0425V203ZM4.0004 190.958C4.0004 197.609 9.39185 203 16.0425 203V211C4.97357 211 -3.9996 202.027 -3.9996 190.958H4.0004ZM4.0004 41.0426V190.958H-3.9996V41.0426H4.0004ZM16.0425 29.0005C9.39182 29.0005 4.0004 34.3919 4.0004 41.0426H-3.9996C-3.9996 29.9736 4.97354 21.0005 16.0425 21.0005V29.0005ZM62.0796 29.0005H16.0425V21.0005H62.0796V29.0005ZM77.7402 3.28851L65.637 26.8294L58.5222 23.1715L70.6255 -0.369436L77.7402 3.28851Z" fill="black" mask="url(#path-1-inside-1_2359_554)"/>
</svg>
