<svg width="745" height="264" viewBox="0 0 745 264" fill="none" xmlns="http://www.w3.org/2000/svg">
<mask id="path-1-inside-1_2106_247" fill="white">
<path fill-rule="evenodd" clip-rule="evenodd" d="M656.403 0C665.263 0 672.445 7.1823 672.445 16.0421V154.866L745 167.354L672.445 179.842V247.958C672.445 256.818 665.263 264 656.403 264H16.0422C7.18237 264 0.00012207 256.818 0.00012207 247.958V16.0421C0.00012207 7.18231 7.18237 0 16.0422 0H656.403Z"/>
</mask>
<path fill-rule="evenodd" clip-rule="evenodd" d="M656.403 0C665.263 0 672.445 7.1823 672.445 16.0421V154.866L745 167.354L672.445 179.842V247.958C672.445 256.818 665.263 264 656.403 264H16.0422C7.18237 264 0.00012207 256.818 0.00012207 247.958V16.0421C0.00012207 7.18231 7.18237 0 16.0422 0H656.403Z" fill="white"/>
<path d="M672.445 154.866L671.982 157.557L669.714 157.167V154.866H672.445ZM745 167.354L745.463 164.663V170.045L745 167.354ZM672.445 179.842H669.714V177.541L671.982 177.151L672.445 179.842ZM669.714 16.0421C669.714 8.69036 663.755 2.73057 656.403 2.73057V-2.73057C666.771 -2.73057 675.176 5.67425 675.176 16.0421H669.714ZM669.714 154.866V16.0421H675.176V154.866H669.714ZM744.537 170.045L671.982 157.557L672.908 152.175L745.463 164.663L744.537 170.045ZM671.982 177.151L744.537 164.663L745.463 170.045L672.908 182.533L671.982 177.151ZM669.714 247.958V179.842H675.176V247.958H669.714ZM656.403 261.269C663.755 261.269 669.714 255.31 669.714 247.958H675.176C675.176 258.326 666.771 266.731 656.403 266.731V261.269ZM16.0422 261.269H656.403V266.731H16.0422V261.269ZM2.73071 247.958C2.73071 255.31 8.69043 261.269 16.0422 261.269V266.731C5.67432 266.731 -2.73047 258.326 -2.73047 247.958H2.73071ZM2.73071 16.0421V247.958H-2.73047V16.0421H2.73071ZM16.0422 2.73057C8.69043 2.73057 2.73071 8.69035 2.73071 16.0421H-2.73047C-2.73047 5.67426 5.67432 -2.73057 16.0422 -2.73057V2.73057ZM656.403 2.73057H16.0422V-2.73057H656.403V2.73057Z" fill="#D60011" mask="url(#path-1-inside-1_2106_247)"/>
</svg>
