<svg width="621" height="217" viewBox="0 0 621 217" fill="none" xmlns="http://www.w3.org/2000/svg">
<mask id="path-1-inside-1_2106_247" fill="white">
<path fill-rule="evenodd" clip-rule="evenodd" d="M571.047 0C579.907 0 587.089 7.18231 587.089 16.0421V69.1969L619.651 80.4119C621.45 81.0313 621.45 83.5745 619.651 84.1939L587.089 95.4089V200.958C587.089 209.818 579.907 217 571.047 217H16.0411C7.18127 217 -0.0010376 209.818 -0.0010376 200.958V16.0421C-0.0010376 7.1823 7.18127 0 16.0411 0H571.047Z"/>
</mask>
<path fill-rule="evenodd" clip-rule="evenodd" d="M571.047 0C579.907 0 587.089 7.18231 587.089 16.0421V69.1969L619.651 80.4119C621.45 81.0313 621.45 83.5745 619.651 84.1939L587.089 95.4089V200.958C587.089 209.818 579.907 217 571.047 217H16.0411C7.18127 217 -0.0010376 209.818 -0.0010376 200.958V16.0421C-0.0010376 7.1823 7.18127 0 16.0411 0H571.047Z" fill="white"/>
<path d="M587.089 69.1969L585.786 72.9789L583.089 72.0499V69.1969H587.089ZM619.651 80.4119L620.954 76.63H620.954L619.651 80.4119ZM619.651 84.1939L620.954 87.9759H620.954L619.651 84.1939ZM587.089 95.4089H583.089V92.556L585.786 91.627L587.089 95.4089ZM583.089 16.0421C583.089 9.39145 577.698 4 571.047 4V-4C582.116 -4 591.089 4.97317 591.089 16.0421H583.089ZM583.089 69.1969V16.0421H591.089V69.1969H583.089ZM618.349 84.1939L585.786 72.9789L588.392 65.415L620.954 76.63L618.349 84.1939ZM618.349 80.4119C616.55 81.0313 616.55 83.5746 618.349 84.1939L620.954 76.63C626.349 78.4881 626.349 86.1178 620.954 87.9759L618.349 80.4119ZM585.786 91.627L618.349 80.4119L620.954 87.9759L588.392 99.1909L585.786 91.627ZM583.089 200.958V95.4089H591.089V200.958H583.089ZM571.047 213C577.698 213 583.089 207.609 583.089 200.958H591.089C591.089 212.027 582.116 221 571.047 221V213ZM16.0411 213H571.047V221H16.0411V213ZM3.99896 200.958C3.99896 207.609 9.39044 213 16.0411 213V221C4.97211 221 -4.00104 212.027 -4.00104 200.958H3.99896ZM3.99896 16.0421V200.958H-4.00104V16.0421H3.99896ZM16.0411 4C9.39044 4 3.99896 9.39144 3.99896 16.0421H-4.00104C-4.00104 4.97317 4.97211 -4 16.0411 -4V4ZM571.047 4H16.0411V-4H571.047V4Z" fill="black" mask="url(#path-1-inside-1_2106_247)"/>
</svg>
