<svg width="37" height="36" viewBox="0 0 37 36" fill="none" xmlns="http://www.w3.org/2000/svg">
<rect x="1.20056" y="0.790408" width="34.4449" height="34.4449" rx="3.42943" fill="#D0E381" stroke="black" stroke-width="1.02613"/>
<path d="M8.74219 21.9186V11.9275H13.2893V10.7747H14.6983V8.98145H19.3736V10.7747H20.7188V27.0422H19.3736H16.2994V25.3129H14.3781V23.4556H9.89495V21.9186H8.74219Z" fill="black"/>
<rect x="9.83203" y="13.7852" width="4.67525" height="6.5966" fill="white"/>
<rect x="14.5059" y="11.959" width="1.85731" height="10.2472" fill="white"/>
<rect x="16.3633" y="10.6465" width="1.85731" height="12.8731" fill="white"/>
<rect x="23.6523" y="21.5029" width="8.43498" height="2.93933" transform="rotate(-90 23.6523 21.5029)" fill="black"/>
<rect x="20.6738" y="22.5566" width="8.43498" height="2.93933" transform="rotate(-90 20.6738 22.5566)" fill="black"/>
<rect x="18.7188" y="14.1211" width="8.43498" height="2.74214" fill="black"/>
<rect x="18.7188" y="17.624" width="8.43498" height="3.23486" fill="black"/>
<rect x="19.6758" y="18.5645" width="8.43498" height="2.93933" fill="black"/>
<rect x="19.6758" y="14.6846" width="8.43498" height="2.93933" fill="black"/>
<rect x="19.6758" y="21.5029" width="8.43498" height="2.93933" transform="rotate(-90 19.6758 21.5029)" fill="black"/>
<rect x="24.2148" y="22.5566" width="8.43498" height="2.93933" transform="rotate(-90 24.2148 22.5566)" fill="black"/>
<rect x="19.7441" y="14.8594" width="2.71805" height="1.01024" fill="white"/>
<rect x="19.7441" y="18.6777" width="2.71805" height="1.01024" fill="white"/>
<rect x="23.4727" y="18.6777" width="2.71805" height="1.01024" fill="white"/>
<rect x="23.4727" y="14.8594" width="2.71805" height="1.01024" fill="white"/>
<rect x="20.7422" y="13.9932" width="0.721606" height="2.74208" fill="white"/>
<rect x="24.4707" y="13.9932" width="0.721606" height="2.74208" fill="white"/>
<rect x="24.4707" y="17.8115" width="0.721606" height="2.74208" fill="white"/>
<rect x="20.7422" y="17.8115" width="0.721606" height="2.74208" fill="white"/>
<rect x="21.4648" y="15.8691" width="3.00668" height="2.99716" fill="white"/>
</svg>
